<mxfile host="app.diagrams.net" agent="Mozilla/5.0 (Macintosh; Intel Mac OS X 10_15_7) AppleWebKit/537.36 (KHTML, like Gecko) Chrome/131.0.0.0 Safari/537.36" border="50" scale="3" compressed="false" locked="false" version="24.7.17">
  <diagram name="Blank" id="YmL12bMKpDGza6XwsDPr">
    <mxGraphModel dx="1152" dy="751" grid="0" gridSize="10" guides="1" tooltips="1" connect="1" arrows="1" fold="1" page="1" pageScale="1" pageWidth="827" pageHeight="1169" background="none" math="1" shadow="0">
      <root>
        <mxCell id="X5NqExCQtvZxIxQ7pmgY-0" />
        <mxCell id="1" parent="X5NqExCQtvZxIxQ7pmgY-0" />
        <mxCell id="Rirl788wc3WxtlOq9C1_-46" value="&lt;font style=&quot;font-size: 16px;&quot;&gt;&lt;b&gt;Endurance Group&lt;/b&gt;&lt;/font&gt;" style="rounded=0;whiteSpace=wrap;html=1;fillColor=#f5f5f5;fontColor=#333333;strokeColor=none;verticalAlign=bottom;" vertex="1" parent="1">
          <mxGeometry x="33" y="20" width="652" height="458" as="geometry" />
        </mxCell>
        <mxCell id="Rirl788wc3WxtlOq9C1_-45" value="" style="group" vertex="1" connectable="0" parent="1">
          <mxGeometry x="137" y="195" width="432" height="256" as="geometry" />
        </mxCell>
        <mxCell id="Rirl788wc3WxtlOq9C1_-22" value="" style="group" vertex="1" connectable="0" parent="Rirl788wc3WxtlOq9C1_-45">
          <mxGeometry x="312" width="120" height="256" as="geometry" />
        </mxCell>
        <mxCell id="Rirl788wc3WxtlOq9C1_-23" value="&lt;font style=&quot;font-size: 14px;&quot;&gt;&lt;b&gt;Reclaim Group n&lt;/b&gt;&lt;/font&gt;" style="rounded=0;whiteSpace=wrap;html=1;verticalAlign=bottom;fillColor=#fff2cc;strokeColor=#d6b656;" vertex="1" parent="Rirl788wc3WxtlOq9C1_-22">
          <mxGeometry width="120" height="256" as="geometry" />
        </mxCell>
        <mxCell id="Rirl788wc3WxtlOq9C1_-24" value="Reclaim Unit 0" style="rounded=0;whiteSpace=wrap;html=1;" vertex="1" parent="Rirl788wc3WxtlOq9C1_-22">
          <mxGeometry x="5.5" y="10" width="109" height="40" as="geometry" />
        </mxCell>
        <mxCell id="Rirl788wc3WxtlOq9C1_-25" value="Reclaim Unit 1" style="rounded=0;whiteSpace=wrap;html=1;" vertex="1" parent="Rirl788wc3WxtlOq9C1_-22">
          <mxGeometry x="5.5" y="59" width="109" height="40" as="geometry" />
        </mxCell>
        <mxCell id="Rirl788wc3WxtlOq9C1_-26" value="Reclaim Unit 2" style="rounded=0;whiteSpace=wrap;html=1;" vertex="1" parent="Rirl788wc3WxtlOq9C1_-22">
          <mxGeometry x="5.5" y="108" width="109" height="40" as="geometry" />
        </mxCell>
        <mxCell id="Rirl788wc3WxtlOq9C1_-27" value="Reclaim Unit n" style="rounded=0;whiteSpace=wrap;html=1;" vertex="1" parent="Rirl788wc3WxtlOq9C1_-22">
          <mxGeometry x="5.5" y="180" width="109" height="40" as="geometry" />
        </mxCell>
        <mxCell id="Rirl788wc3WxtlOq9C1_-28" value="&lt;font style=&quot;font-size: 15px;&quot;&gt;...&lt;/font&gt;" style="rounded=0;whiteSpace=wrap;html=1;strokeColor=none;fillColor=none;" vertex="1" parent="Rirl788wc3WxtlOq9C1_-22">
          <mxGeometry x="5.5" y="140" width="109" height="40" as="geometry" />
        </mxCell>
        <mxCell id="Rirl788wc3WxtlOq9C1_-29" value="&lt;b&gt;&lt;font style=&quot;font-size: 15px;&quot;&gt;...&lt;/font&gt;&lt;/b&gt;" style="rounded=0;whiteSpace=wrap;html=1;strokeColor=none;fillColor=none;" vertex="1" parent="Rirl788wc3WxtlOq9C1_-22">
          <mxGeometry x="-82" y="108" width="109" height="40" as="geometry" />
        </mxCell>
        <mxCell id="Rirl788wc3WxtlOq9C1_-30" value="" style="group" vertex="1" connectable="0" parent="Rirl788wc3WxtlOq9C1_-45">
          <mxGeometry x="137" width="120" height="256" as="geometry" />
        </mxCell>
        <mxCell id="Rirl788wc3WxtlOq9C1_-31" value="&lt;font style=&quot;font-size: 14px;&quot;&gt;&lt;b&gt;Reclaim Group 1&lt;/b&gt;&lt;/font&gt;" style="rounded=0;whiteSpace=wrap;html=1;verticalAlign=bottom;fillColor=#fff2cc;strokeColor=#d6b656;" vertex="1" parent="Rirl788wc3WxtlOq9C1_-30">
          <mxGeometry width="120" height="256" as="geometry" />
        </mxCell>
        <mxCell id="Rirl788wc3WxtlOq9C1_-32" value="Reclaim Unit 0" style="rounded=0;whiteSpace=wrap;html=1;" vertex="1" parent="Rirl788wc3WxtlOq9C1_-30">
          <mxGeometry x="5.5" y="10" width="109" height="40" as="geometry" />
        </mxCell>
        <mxCell id="Rirl788wc3WxtlOq9C1_-33" value="Reclaim Unit 1" style="rounded=0;whiteSpace=wrap;html=1;" vertex="1" parent="Rirl788wc3WxtlOq9C1_-30">
          <mxGeometry x="5.5" y="59" width="109" height="40" as="geometry" />
        </mxCell>
        <mxCell id="Rirl788wc3WxtlOq9C1_-34" value="Reclaim Unit 2" style="rounded=0;whiteSpace=wrap;html=1;" vertex="1" parent="Rirl788wc3WxtlOq9C1_-30">
          <mxGeometry x="5.5" y="108" width="109" height="40" as="geometry" />
        </mxCell>
        <mxCell id="Rirl788wc3WxtlOq9C1_-35" value="Reclaim Unit n" style="rounded=0;whiteSpace=wrap;html=1;" vertex="1" parent="Rirl788wc3WxtlOq9C1_-30">
          <mxGeometry x="5.5" y="180" width="109" height="40" as="geometry" />
        </mxCell>
        <mxCell id="Rirl788wc3WxtlOq9C1_-36" value="&lt;font style=&quot;font-size: 15px;&quot;&gt;...&lt;/font&gt;" style="rounded=0;whiteSpace=wrap;html=1;strokeColor=none;fillColor=none;" vertex="1" parent="Rirl788wc3WxtlOq9C1_-30">
          <mxGeometry x="5.5" y="140" width="109" height="40" as="geometry" />
        </mxCell>
        <mxCell id="Rirl788wc3WxtlOq9C1_-38" value="" style="group" vertex="1" connectable="0" parent="Rirl788wc3WxtlOq9C1_-45">
          <mxGeometry width="120" height="256" as="geometry" />
        </mxCell>
        <mxCell id="Rirl788wc3WxtlOq9C1_-39" value="&lt;font style=&quot;font-size: 14px;&quot;&gt;&lt;b&gt;Reclaim Group 0&lt;/b&gt;&lt;/font&gt;" style="rounded=0;whiteSpace=wrap;html=1;verticalAlign=bottom;fillColor=#fff2cc;strokeColor=#d6b656;" vertex="1" parent="Rirl788wc3WxtlOq9C1_-38">
          <mxGeometry x="-10" width="120" height="256" as="geometry" />
        </mxCell>
        <mxCell id="Rirl788wc3WxtlOq9C1_-40" value="Reclaim Unit 0" style="rounded=0;whiteSpace=wrap;html=1;" vertex="1" parent="Rirl788wc3WxtlOq9C1_-38">
          <mxGeometry x="-4.5" y="10" width="109" height="40" as="geometry" />
        </mxCell>
        <mxCell id="Rirl788wc3WxtlOq9C1_-41" value="Reclaim Unit 1" style="rounded=0;whiteSpace=wrap;html=1;" vertex="1" parent="Rirl788wc3WxtlOq9C1_-38">
          <mxGeometry x="-4.5" y="59" width="109" height="40" as="geometry" />
        </mxCell>
        <mxCell id="Rirl788wc3WxtlOq9C1_-42" value="Reclaim Unit 2" style="rounded=0;whiteSpace=wrap;html=1;" vertex="1" parent="Rirl788wc3WxtlOq9C1_-38">
          <mxGeometry x="-4.5" y="108" width="109" height="40" as="geometry" />
        </mxCell>
        <mxCell id="Rirl788wc3WxtlOq9C1_-43" value="Reclaim Unit n" style="rounded=0;whiteSpace=wrap;html=1;" vertex="1" parent="Rirl788wc3WxtlOq9C1_-38">
          <mxGeometry x="-4.5" y="180" width="109" height="40" as="geometry" />
        </mxCell>
        <mxCell id="Rirl788wc3WxtlOq9C1_-44" value="&lt;font style=&quot;font-size: 15px;&quot;&gt;...&lt;/font&gt;" style="rounded=0;whiteSpace=wrap;html=1;strokeColor=none;fillColor=none;" vertex="1" parent="Rirl788wc3WxtlOq9C1_-38">
          <mxGeometry x="-4.5" y="140" width="109" height="40" as="geometry" />
        </mxCell>
        <mxCell id="Rirl788wc3WxtlOq9C1_-51" style="edgeStyle=orthogonalEdgeStyle;rounded=0;orthogonalLoop=1;jettySize=auto;html=1;entryX=0;entryY=0.5;entryDx=0;entryDy=0;jumpStyle=arc;fillColor=#d5e8d4;strokeColor=#82b366;strokeWidth=2;" edge="1" parent="1" source="Rirl788wc3WxtlOq9C1_-47" target="Rirl788wc3WxtlOq9C1_-40">
          <mxGeometry relative="1" as="geometry">
            <Array as="points">
              <mxPoint x="54" y="225" />
            </Array>
          </mxGeometry>
        </mxCell>
        <mxCell id="Rirl788wc3WxtlOq9C1_-47" value="Reclaim Unit Handler 0" style="rounded=0;whiteSpace=wrap;html=1;fillColor=#d5e8d4;strokeColor=#82b366;" vertex="1" parent="1">
          <mxGeometry x="46" y="38" width="488" height="35" as="geometry" />
        </mxCell>
        <mxCell id="Rirl788wc3WxtlOq9C1_-54" style="edgeStyle=orthogonalEdgeStyle;rounded=0;orthogonalLoop=1;jettySize=auto;html=1;entryX=0;entryY=0.5;entryDx=0;entryDy=0;fillColor=#dae8fc;strokeColor=#6c8ebf;strokeWidth=2;" edge="1" parent="1" source="Rirl788wc3WxtlOq9C1_-48" target="Rirl788wc3WxtlOq9C1_-41">
          <mxGeometry relative="1" as="geometry">
            <Array as="points">
              <mxPoint x="106" y="274" />
            </Array>
          </mxGeometry>
        </mxCell>
        <mxCell id="Rirl788wc3WxtlOq9C1_-48" value="Reclaim Unit Handler 1" style="rounded=0;whiteSpace=wrap;html=1;fillColor=#dae8fc;strokeColor=#6c8ebf;" vertex="1" parent="1">
          <mxGeometry x="89" y="79" width="512" height="35" as="geometry" />
        </mxCell>
        <mxCell id="Rirl788wc3WxtlOq9C1_-57" style="edgeStyle=orthogonalEdgeStyle;rounded=0;orthogonalLoop=1;jettySize=auto;html=1;fillColor=#e1d5e7;strokeColor=#9673a6;strokeWidth=2;" edge="1" parent="1" source="Rirl788wc3WxtlOq9C1_-49">
          <mxGeometry relative="1" as="geometry">
            <mxPoint x="451" y="276" as="targetPoint" />
            <Array as="points">
              <mxPoint x="429" y="276" />
            </Array>
          </mxGeometry>
        </mxCell>
        <mxCell id="Rirl788wc3WxtlOq9C1_-58" style="edgeStyle=orthogonalEdgeStyle;rounded=0;orthogonalLoop=1;jettySize=auto;html=1;entryX=0;entryY=0.5;entryDx=0;entryDy=0;fillColor=#e1d5e7;strokeColor=#9673a6;strokeWidth=2;" edge="1" parent="1" source="Rirl788wc3WxtlOq9C1_-49" target="Rirl788wc3WxtlOq9C1_-32">
          <mxGeometry relative="1" as="geometry">
            <Array as="points">
              <mxPoint x="267" y="225" />
            </Array>
          </mxGeometry>
        </mxCell>
        <mxCell id="Rirl788wc3WxtlOq9C1_-59" style="edgeStyle=orthogonalEdgeStyle;rounded=0;orthogonalLoop=1;jettySize=auto;html=1;entryX=0;entryY=0.5;entryDx=0;entryDy=0;fillColor=#e1d5e7;strokeColor=#9673a6;strokeWidth=2;" edge="1" parent="1" source="Rirl788wc3WxtlOq9C1_-49" target="Rirl788wc3WxtlOq9C1_-43">
          <mxGeometry relative="1" as="geometry">
            <Array as="points">
              <mxPoint x="117" y="395" />
            </Array>
          </mxGeometry>
        </mxCell>
        <mxCell id="Rirl788wc3WxtlOq9C1_-49" value="Reclaim Unit Handler n" style="rounded=0;whiteSpace=wrap;html=1;fillColor=#e1d5e7;strokeColor=#9673a6;" vertex="1" parent="1">
          <mxGeometry x="114" y="137" width="550" height="35" as="geometry" />
        </mxCell>
        <mxCell id="Rirl788wc3WxtlOq9C1_-52" style="edgeStyle=orthogonalEdgeStyle;rounded=0;orthogonalLoop=1;jettySize=auto;html=1;entryX=0;entryY=0.5;entryDx=0;entryDy=0;fillColor=#d5e8d4;strokeColor=#82b366;strokeWidth=2;" edge="1" parent="1" source="Rirl788wc3WxtlOq9C1_-47" target="Rirl788wc3WxtlOq9C1_-33">
          <mxGeometry relative="1" as="geometry">
            <Array as="points">
              <mxPoint x="259" y="274" />
            </Array>
          </mxGeometry>
        </mxCell>
        <mxCell id="Rirl788wc3WxtlOq9C1_-56" style="edgeStyle=orthogonalEdgeStyle;rounded=0;orthogonalLoop=1;jettySize=auto;html=1;entryX=0;entryY=0.5;entryDx=0;entryDy=0;fillColor=#dae8fc;strokeColor=#6c8ebf;strokeWidth=2;" edge="1" parent="1" source="Rirl788wc3WxtlOq9C1_-48" target="Rirl788wc3WxtlOq9C1_-24">
          <mxGeometry relative="1" as="geometry">
            <Array as="points">
              <mxPoint x="435" y="225" />
            </Array>
          </mxGeometry>
        </mxCell>
        <mxCell id="Rirl788wc3WxtlOq9C1_-53" style="edgeStyle=orthogonalEdgeStyle;rounded=0;orthogonalLoop=1;jettySize=auto;html=1;entryX=0;entryY=0.5;entryDx=0;entryDy=0;fillColor=#d5e8d4;strokeColor=#82b366;strokeWidth=2;" edge="1" parent="1" source="Rirl788wc3WxtlOq9C1_-47" target="Rirl788wc3WxtlOq9C1_-27">
          <mxGeometry relative="1" as="geometry">
            <Array as="points">
              <mxPoint x="411" y="395" />
            </Array>
          </mxGeometry>
        </mxCell>
        <mxCell id="Rirl788wc3WxtlOq9C1_-55" style="edgeStyle=orthogonalEdgeStyle;rounded=0;orthogonalLoop=1;jettySize=auto;html=1;entryX=0;entryY=0.5;entryDx=0;entryDy=0;fillColor=#dae8fc;strokeColor=#6c8ebf;strokeWidth=2;" edge="1" parent="1" source="Rirl788wc3WxtlOq9C1_-48" target="Rirl788wc3WxtlOq9C1_-34">
          <mxGeometry relative="1" as="geometry">
            <Array as="points">
              <mxPoint x="253" y="323" />
            </Array>
          </mxGeometry>
        </mxCell>
        <mxCell id="Rirl788wc3WxtlOq9C1_-60" value="&lt;b&gt;&lt;font style=&quot;font-size: 15px;&quot;&gt;...&lt;/font&gt;&lt;/b&gt;" style="rounded=0;whiteSpace=wrap;html=1;strokeColor=none;fillColor=none;" vertex="1" parent="1">
          <mxGeometry x="304.5" y="101" width="109" height="40" as="geometry" />
        </mxCell>
      </root>
    </mxGraphModel>
  </diagram>
</mxfile>
